<?xml version="1.0" encoding="UTF-8" standalone="no"?>
<!-- Created with Inkscape (http://www.inkscape.org/) -->

<svg
   width="297mm"
   height="210mm"
   viewBox="0 0 297 210"
   version="1.1"
   id="svg1"
   inkscape:version="1.4.4 (dcaf3e7, 2026-05-05)"
   sodipodi:docname="COLOREDLOGO.svg"
   xmlns:inkscape="http://www.inkscape.org/namespaces/inkscape"
   xmlns:sodipodi="http://sodipodi.sourceforge.net/DTD/sodipodi-0.dtd"
   xmlns="http://www.w3.org/2000/svg"
   xmlns:svg="http://www.w3.org/2000/svg">
  <sodipodi:namedview
     id="namedview1"
     pagecolor="#ffffff"
     bordercolor="#000000"
     borderopacity="0.25"
     inkscape:showpageshadow="2"
     inkscape:pageopacity="0.0"
     inkscape:pagecheckerboard="0"
     inkscape:deskcolor="#d1d1d1"
     inkscape:document-units="mm"
     inkscape:zoom="0.1866337"
     inkscape:cx="-626.89644"
     inkscape:cy="233.07688"
     inkscape:window-width="1920"
     inkscape:window-height="1017"
     inkscape:window-x="-8"
     inkscape:window-y="-8"
     inkscape:window-maximized="1"
     inkscape:current-layer="svg1" />
  <defs
     id="defs1" />
  <path
     id="path62"
     style="fill:#fcc91f;fill-opacity:1;fill-rule:nonzero;stroke:none;stroke-width:1.07154"
     d="M 184.90086 35.514111 C 182.94852 35.472191 181.33561 37.020991 181.29384 38.973332 C 181.26654 40.146663 181.81807 41.19885 182.68601 41.859977 L 175.29783 52.941471 L 176.02802 53.428263 L 183.44617 42.300777 C 183.848 42.471177 184.28912 42.570628 184.75203 42.580347 C 186.70434 42.622267 188.31923 41.075018 188.36215 39.122677 C 188.40155 37.170336 186.85211 35.555876 184.90086 35.514111 z M 233.74181 36.997225 C 231.78837 36.997225 230.20559 38.578002 230.20559 40.530343 C 230.20559 40.769389 230.22993 41.002901 230.27483 41.229008 L 179.38388 55.817265 L 179.62728 56.660107 L 230.55389 42.060999 C 231.12505 43.247178 232.33703 44.065527 233.74181 44.065527 C 235.69422 44.065527 237.27544 42.483747 237.27544 40.530343 C 237.27544 38.578002 235.69422 36.997225 233.74181 36.997225 z M 170.94977 39.659078 C 169.19034 39.659078 167.76702 41.084431 167.76702 42.843896 C 167.76702 44.454435 168.96052 45.786031 170.51207 45.999259 L 170.51207 52.225753 L 171.38954 52.225753 L 171.38954 45.999259 C 172.94218 45.784816 174.13769 44.454435 174.13769 42.843896 C 174.13769 41.084431 172.70817 39.659078 170.94977 39.659078 z M 171.28567 53.909371 L 161.16019 53.973966 C 158.99778 53.973966 157.3524 54.508613 156.22199 55.578003 C 155.09043 56.648485 154.52545 58.357039 154.52545 60.705855 L 154.52545 139.89275 C 154.52545 142.18908 155.09043 143.8434 156.22199 144.86351 C 157.3524 145.88148 158.99778 146.38796 161.16019 146.38796 L 171.28567 146.32492 C 173.44589 146.32492 175.07921 145.79135 176.18615 144.72088 C 177.28983 143.65042 177.84392 141.94026 177.84392 139.59251 L 177.84392 60.407682 C 177.84392 58.110287 177.28983 56.454376 176.18615 55.43641 C 175.07921 54.418445 173.44589 53.909371 171.28567 53.909371 z M 273.83962 54.014274 C 271.30975 54.014274 269.25953 56.065481 269.25953 58.596423 L 269.25953 58.637248 L 179.57354 61.649467 L 179.60402 62.525382 L 269.34945 59.511613 C 269.77162 61.604343 271.62049 63.178056 273.83858 63.178056 C 276.36961 63.178056 278.42228 61.126332 278.42228 58.596423 C 278.42228 56.065451 276.36961 54.014791 273.83858 54.014791 L 273.83962 54.014274 z M 170.75702 57.902409 C 171.61211 57.902409 172.22729 58.136412 172.60445 58.605725 C 172.98167 59.076102 173.17083 59.676907 173.17083 60.407682 L 173.17083 139.35583 C 173.17083 140.19376 172.96995 140.89867 172.56828 141.47302 C 172.16541 142.04737 171.55962 142.33188 170.75702 142.33188 L 161.61546 142.39441 C 160.80859 142.39441 160.20554 142.16152 159.80265 141.69316 C 159.40083 141.22062 159.19958 140.62245 159.19958 139.89275 L 159.19958 60.9415 C 159.19958 60.106782 159.40068 59.400762 159.80265 58.82535 C 160.20554 58.252065 160.80859 57.965454 161.61546 57.965454 L 170.75702 57.902409 z M 54.869002 67.850639 C 53.761007 67.850639 52.979784 67.965117 52.525476 68.191187 C 52.068979 68.420513 51.84283 68.665169 51.84283 68.924475 L 51.84283 135.7421 C 51.84283 136.32717 52.881531 136.61957 54.964604 136.61957 C 56.97909 136.61957 57.989742 136.26096 57.989742 135.54625 L 57.989742 68.924475 C 57.989742 68.665078 57.743416 68.420513 57.258004 68.191187 C 56.769371 67.965201 55.973748 67.850639 54.869002 67.850639 z M 78.082572 67.850639 C 75.871988 67.850639 74.376159 68.208186 73.594991 68.922925 C 72.813855 69.639791 72.359915 70.550829 72.229183 71.655575 C 72.229183 71.786181 72.114749 72.777387 71.888635 74.63007 C 71.659309 76.483847 71.384417 78.922533 71.059745 81.946419 C 70.731855 84.970306 70.34419 88.384211 69.888757 92.188171 C 69.434448 95.993195 68.977197 99.893899 68.525016 103.89288 C 68.06852 107.89189 67.628438 111.79412 67.206234 115.59915 C 66.782999 119.40416 66.390991 122.80164 66.035246 125.79232 C 65.677346 128.78511 65.401876 131.19103 65.206873 133.00945 C 65.010655 134.83106 64.9118 135.77607 64.9118 135.83822 C 64.8474 136.03413 64.978438 136.21378 65.304024 136.37669 C 65.627632 136.53859 66.44067 136.61957 67.743669 136.61957 C 69.043447 136.61957 69.871921 136.52157 70.229822 136.32656 C 70.587693 136.13247 70.799589 135.93716 70.863892 135.74107 C 70.863892 135.67787 70.944821 134.9458 71.108838 133.54637 C 71.269518 132.1491 71.450237 130.63837 71.645239 129.01176 C 71.839331 127.38623 72.035212 125.89038 72.229183 124.52418 C 72.424186 123.15904 72.521155 122.41273 72.521155 122.27987 C 72.586465 121.89089 72.87834 121.69593 73.400171 121.69593 L 83.155648 121.69593 C 83.546779 121.69593 83.772927 121.92421 83.838293 122.37858 C 83.838293 122.5748 83.919791 123.35431 84.081689 124.72055 C 84.244495 126.08567 84.423574 127.58262 84.618608 129.20813 C 84.814826 130.83474 84.991077 132.32747 85.153975 133.69261 C 85.315871 135.05883 85.398405 135.77608 85.398405 135.83822 C 85.462805 135.97004 85.673541 136.13274 86.032475 136.32656 C 86.389283 136.52156 87.154215 136.61957 88.324325 136.61957 C 89.494466 136.61957 90.28949 136.5045 90.714876 136.27747 C 91.137085 136.05028 91.314544 135.87128 91.250244 135.74055 C 91.250244 135.67735 91.152065 134.73437 90.958272 132.91385 C 90.762055 131.09327 90.503112 128.68583 90.179508 125.69517 C 89.852681 122.70448 89.477202 119.30596 89.056063 115.50199 C 88.633889 111.69696 88.191619 107.81115 87.73728 103.84431 C 87.281878 99.879617 86.845381 95.993195 86.422115 92.188171 C 85.997786 88.384211 85.625954 84.970306 85.301253 81.946419 C 84.973362 78.922533 84.699076 76.452059 84.470813 74.532918 C 84.243613 72.614869 84.130265 71.589935 84.130265 71.459204 C 83.998444 70.484096 83.528121 69.639791 82.715881 68.922925 C 81.901514 68.208186 80.357458 67.850639 78.082572 67.850639 z M 20.434412 68.338981 C 19.914707 68.338981 19.654097 68.599499 19.654097 69.119295 L 19.654097 135.15712 C 19.654097 135.80754 19.979284 136.13329 20.630782 136.13329 L 34.479549 136.13329 C 37.275174 136.13329 39.406665 135.44949 40.86934 134.08329 C 42.33305 132.71815 43.065588 130.57186 43.065588 127.64441 L 43.065588 76.435128 C 43.065588 73.574139 42.33305 71.508834 40.86934 70.241191 C 39.406665 68.972485 37.275174 68.338981 34.479549 68.338981 L 20.434412 68.338981 z M 104.71144 68.338981 C 101.91472 68.338981 99.801212 69.006945 98.371773 70.338859 C 96.940192 71.672931 96.224101 73.799651 96.224101 76.7271 L 96.224101 87.262374 C 96.224101 88.888981 96.648865 90.466403 97.494307 91.993351 C 98.339749 93.522427 99.4108 95.050678 100.71168 96.576534 C 102.01142 98.105608 103.39498 99.601465 104.85872 101.06412 C 106.32136 102.52675 107.7023 104.0232 109.0042 105.55015 C 110.30399 107.07926 111.37665 108.6089 112.22209 110.13695 C 113.06753 111.66495 113.49023 113.24085 113.49023 114.86637 L 113.49023 127.4501 C 113.49023 128.4927 113.22901 129.36935 112.71043 130.08405 C 112.1886 130.80092 111.40835 131.15582 110.37001 131.15582 L 105.39408 131.15582 C 104.28716 131.15582 103.47573 130.86384 102.95496 130.2799 C 102.4342 129.69483 102.17464 128.94747 102.17464 128.0356 L 102.17464 123.25604 C 102.17464 122.4749 101.20052 122.0866 99.249239 122.0866 C 98.143403 122.0866 97.361595 122.23185 96.907263 122.5243 C 96.450761 122.81802 96.224101 123.06104 96.224101 123.25604 L 96.224101 128.0356 C 96.224101 130.89768 96.940192 132.96141 98.371773 134.22902 C 99.801212 135.49774 101.91472 136.13329 104.71144 136.13329 L 111.05265 136.13329 C 113.84615 136.13329 115.9618 135.46484 117.39232 134.13186 C 118.82173 132.79991 119.53792 130.67001 119.53792 127.74362 L 119.53792 115.16145 C 119.53792 112.62404 119.11414 110.36494 118.26978 108.38046 C 117.42324 106.39596 116.35118 104.59345 115.05034 102.96684 C 113.74841 101.3424 112.35166 99.845467 110.85473 98.47926 C 109.35885 97.114116 107.96151 95.747985 106.66067 94.383903 C 105.35876 93.017696 104.28768 91.602364 103.4433 90.139718 C 102.59786 88.676008 102.17464 87.033979 102.17464 85.21237 L 102.17464 77.019071 C 102.17464 75.980754 102.43425 75.102476 102.95496 74.386674 C 103.47573 73.671967 104.2554 73.313354 105.29693 73.313354 L 109.29462 73.313354 L 110.37001 73.313354 C 111.47265 73.313354 112.27146 73.605597 112.75901 74.19082 C 113.24659 74.774796 113.49023 75.524324 113.49023 76.435128 L 113.49023 81.214681 C 113.49023 81.410899 113.76612 81.639085 114.31912 81.897327 C 114.87096 82.157635 115.60404 82.286967 116.51485 82.286967 C 118.52934 82.286967 119.53792 81.930453 119.53792 81.214681 L 119.53792 76.435128 C 119.53792 73.574139 118.82173 71.507283 117.39232 70.23964 C 115.9618 68.970934 113.84615 68.338981 111.05265 68.338981 L 104.71144 68.338981 z M 127.34261 68.338981 C 126.69217 68.338981 126.36593 68.599499 126.36593 69.119295 L 126.36593 135.54625 C 126.36593 135.80657 126.60892 136.05185 127.09767 136.27902 C 127.58415 136.50623 128.31783 136.61957 129.29185 136.61957 C 130.26802 136.61957 131.03282 136.5061 131.5868 136.27902 C 132.13759 136.05183 132.41362 135.8384 132.41362 135.6434 L 132.41362 104.91918 C 132.41362 104.59343 132.57422 104.4298 132.89886 104.4298 L 141.67921 104.4298 C 144.21661 104.4298 146.21729 103.7804 147.67884 102.4785 C 149.14365 101.17872 149.87457 99.260646 149.87457 96.724329 L 149.87457 76.435128 C 149.87457 71.036727 147.46865 68.338981 142.65744 68.338981 L 127.34261 68.338981 z M 224.51549 68.831974 C 222.36918 68.831974 220.91677 69.178838 220.15814 69.874288 C 219.39947 70.569709 218.95808 71.451617 218.8316 72.525289 C 218.8316 72.652866 218.7213 73.617482 218.50036 75.416585 C 218.2765 77.217843 218.00872 79.586567 217.69369 82.523645 C 217.37649 85.462879 216.99833 88.779726 216.55577 92.475492 C 216.11432 96.170137 215.67171 99.961532 215.23131 103.84586 C 214.7877 107.73126 214.36067 111.52097 213.95025 115.21777 C 213.53877 118.91355 213.16219 122.21454 212.81388 125.12053 C 212.46568 128.02655 212.19906 130.36445 212.00721 132.13354 C 211.82073 133.90267 211.72144 134.81852 211.72144 134.88066 C 211.65794 135.07021 211.78832 135.24452 212.10282 135.4031 C 212.41997 135.55861 213.20882 135.6403 214.47321 135.6403 C 215.73551 135.6403 216.53983 135.54526 216.88702 135.35453 C 217.23525 135.16591 217.44081 134.9773 217.50404 134.78764 C 217.50404 134.72444 217.58088 134.0142 217.74071 132.65444 C 217.89926 131.29786 218.07141 129.82638 218.26213 128.24695 C 218.45166 126.66855 218.64088 125.21568 218.8316 123.88805 C 219.02113 122.56148 219.11582 121.83581 219.11582 121.70937 C 219.17932 121.33006 219.46066 121.13989 219.96642 121.13989 L 229.44388 121.13989 C 229.82538 121.13989 230.04629 121.36412 230.10947 121.80549 C 230.10947 121.9929 230.18574 122.75058 230.34666 124.07821 C 230.50096 125.40478 230.67581 126.85875 230.86653 128.43712 C 231.05515 130.01658 231.22939 131.46946 231.38898 132.79603 C 231.54449 134.12366 231.62462 134.81799 231.62462 134.88014 C 231.68812 135.0065 231.89184 135.16604 232.24112 135.35453 C 232.58934 135.54529 233.32992 135.6403 234.46683 135.6403 C 235.60378 135.6403 236.37768 135.52826 236.7902 135.3075 C 237.19959 135.0879 237.37167 134.9146 237.30955 134.78816 C 237.30955 134.72496 237.21493 133.80707 237.02533 132.03794 C 236.8358 130.27098 236.58281 127.9325 236.26568 125.02648 C 235.95063 122.12262 235.5877 118.81946 235.17944 115.12372 C 234.76589 111.42798 234.34139 107.65264 233.8989 103.79832 C 233.45737 99.946122 233.0292 96.16962 232.62094 92.474976 C 232.20628 88.779209 231.84507 85.462879 231.53005 82.523645 C 231.21286 79.586567 230.94414 77.186484 230.72338 75.322017 C 230.50043 73.458581 230.39369 72.463119 230.39369 72.33667 C 230.26391 71.388353 229.80886 70.569192 229.0191 69.873771 C 228.22727 69.178321 226.72932 68.831974 224.51549 68.831974 z M 184.05492 69.304297 C 183.54807 69.304297 183.29682 69.525816 183.29682 69.968339 L 183.29682 134.50238 C 183.29682 134.7554 183.56551 134.99375 184.10349 135.21345 C 184.63927 135.43518 185.34852 135.5447 186.23359 135.5447 C 187.11657 135.5447 187.82893 135.43532 188.3668 135.21345 C 188.9026 134.99384 189.17192 134.78766 189.17192 134.59799 L 189.17192 105.0308 C 189.17192 104.71578 189.39073 104.55693 189.83441 104.55693 L 198.55377 104.55693 C 199.24706 104.55693 199.67309 104.73072 199.83276 105.07782 C 199.98918 105.42607 200.07151 105.85372 200.07151 106.35733 L 200.07151 134.59799 C 200.07151 134.9141 200.35321 135.16595 200.9221 135.35453 C 201.4911 135.54529 202.21574 135.6403 203.10078 135.6403 C 204.99636 135.6403 205.94505 135.29235 205.94505 134.59799 L 205.94505 105.97751 C 205.94505 105.03028 205.61302 104.115 204.94976 103.22884 C 204.28755 102.34589 203.32016 101.90437 202.06002 101.90437 C 203.32016 101.90437 204.28755 101.36684 204.94976 100.29207 C 205.61302 99.21946 205.94505 98.176714 205.94505 97.164095 L 205.94505 76.221704 C 205.94505 74.516883 205.39092 72.938119 204.28727 71.482975 C 203.1803 70.031051 201.52242 69.304297 199.31187 69.304297 L 184.05492 69.304297 z M 26.190133 73.215169 L 26.190133 73.215686 L 33.895605 73.215686 C 34.936079 73.215686 35.715751 73.524522 36.237581 74.141728 C 36.758349 74.759998 37.017379 75.524324 37.017379 76.435128 L 37.017379 127.35243 C 37.017379 128.45933 36.758319 129.36935 36.237581 130.08405 C 35.715751 130.80092 34.936079 131.15737 33.895605 131.15737 L 26.286251 131.15737 C 25.831912 131.15737 25.604639 130.86332 25.604639 130.27835 L 25.604639 73.799113 C 25.604639 73.410169 25.799032 73.215169 26.190133 73.215169 z M 133.09524 73.312321 L 133.09524 73.312838 L 140.60744 73.312838 C 141.64575 73.312838 142.44294 73.622736 142.99799 74.238879 C 143.54878 74.859305 143.82688 75.589689 143.82688 76.435128 L 143.82688 95.650492 C 143.82688 96.820602 143.58208 97.746533 143.09359 98.430168 C 142.60603 99.112742 141.81089 99.455428 140.70614 99.455428 L 133.00118 99.455428 C 132.61007 99.455428 132.41362 99.228062 132.41362 98.772782 L 132.41362 73.799113 C 132.41362 73.474442 132.64212 73.312321 133.09524 73.312321 z M 189.83441 74.138627 L 197.13009 74.138627 C 198.267 74.138627 199.03939 74.42037 199.45294 74.989221 C 199.86336 75.557129 200.07151 76.190901 200.07151 76.884196 L 200.07151 96.975476 C 200.07151 98.744568 199.18346 99.629578 197.41431 99.629578 L 189.74036 99.629578 C 189.36 99.629578 189.17192 99.439843 189.17192 99.059587 L 189.17192 74.705518 C 189.17192 74.327267 189.39073 74.138627 189.83441 74.138627 z M 78.198844 76.909517 L 78.198844 76.910551 C 78.199634 76.910429 78.201429 76.910551 78.204529 76.910551 C 78.261029 76.919651 78.319106 77.150742 78.377128 77.604565 C 78.505606 78.841135 78.700703 80.628299 78.961072 82.969613 C 79.220469 85.310928 79.530763 87.880494 79.888664 90.676119 C 80.245501 93.471773 80.603049 96.332672 80.96095 99.259058 C 81.317757 102.18543 81.645189 104.85353 81.935567 107.25805 C 82.229288 109.66474 82.473822 111.63308 82.668856 113.16002 C 82.862948 114.68804 82.960311 115.48521 82.960311 115.55057 C 83.090918 116.19992 82.894672 116.52519 82.374817 116.52519 L 73.887996 116.52519 C 73.49796 116.52519 73.304053 116.23115 73.304053 115.64617 C 73.304053 115.58177 73.401018 114.76875 73.596025 113.20859 C 73.791028 111.64843 74.035199 109.66474 74.328796 107.25805 C 74.621301 104.85353 74.96247 102.18543 75.352507 99.259058 C 75.741482 96.332672 76.099029 93.471773 76.425826 90.676119 C 76.750499 87.880494 77.057207 85.310928 77.351868 82.969613 C 77.642246 80.628299 77.855207 78.841135 77.985937 77.604565 C 78.049117 77.215592 78.114236 76.987832 78.180758 76.921403 C 78.186858 76.915303 78.192754 76.912557 78.198844 76.909517 z M 224.63177 77.631437 L 224.62712 77.632471 C 224.68582 77.623371 224.74264 77.849502 224.79972 78.307882 C 224.92936 79.508003 225.11631 81.24514 225.36919 83.518933 C 225.62101 85.793819 225.92171 88.289437 226.26888 91.005815 C 226.61606 93.722162 226.96604 96.501011 227.31429 99.343807 C 227.65927 102.18765 227.97552 104.77997 228.26049 107.11698 C 228.54449 109.45507 228.78231 111.36379 228.9731 112.84893 C 229.16172 114.33409 229.25577 115.10754 229.25577 115.17075 C 229.38118 115.8019 229.19291 116.11849 228.68733 116.11849 L 220.44236 116.11849 C 220.06302 116.11849 219.87237 115.83256 219.87237 115.2648 C 219.87237 115.2016 219.96741 114.41216 220.15814 112.89595 C 220.34677 111.38078 220.58267 109.45507 220.86766 107.11698 C 221.15286 104.77997 221.48517 102.18765 221.86449 99.343807 C 222.2427 96.501011 222.59025 93.722162 222.90526 91.005815 C 223.22133 88.289437 223.52307 85.793819 223.80598 83.518933 C 224.08877 81.24514 224.29287 79.508003 224.42144 78.307882 C 224.48344 77.927505 224.54759 77.708141 224.60955 77.64384 L 224.60955 77.643323 L 224.61006 77.642806 L 224.61006 77.642289 L 224.61058 77.641772 L 224.6111 77.641256 C 224.61353 77.639357 224.61896 77.636943 224.62143 77.635055 L 224.62195 77.635055 L 224.62195 77.634538 L 224.62195 77.634021 L 224.62195 77.633504 L 224.62247 77.633504 L 224.62298 77.632987 L 224.6235 77.632471 C 224.62488 77.631929 224.62739 77.631437 224.63177 77.631437 z M 152.68887 142.96905 L 78.361625 146.70009 C 78.017666 144.91812 76.486508 143.48534 74.498812 143.27963 C 72.076063 143.02782 69.895485 144.69731 69.632959 147.00756 C 69.368399 149.31995 71.11996 151.39636 73.544865 151.64604 C 75.967614 151.89784 78.147099 150.22944 78.410718 147.9181 C 78.422858 147.80238 78.428875 147.68744 78.431905 147.57394 L 152.73383 143.84445 L 152.68887 142.96905 z M 154.59573 146.0252 L 128.34359 156.85399 C 127.80997 155.84463 126.74977 155.15849 125.52929 155.15849 C 123.77088 155.15849 122.34292 156.58279 122.34292 158.34331 C 122.34292 160.10171 123.77088 161.52812 125.52929 161.52812 C 127.28876 161.52812 128.71411 160.10171 128.71411 158.34331 C 128.71411 158.1152 128.68981 157.8931 128.64331 157.67771 L 154.93008 146.83497 L 154.59573 146.0252 z M 156.48606 148.01836 L 136.78235 170.45936 C 135.97011 170.00824 135.01564 169.79789 134.02128 169.91469 C 131.50958 170.21356 129.71328 172.49103 130.01222 175.00379 C 130.30686 177.51763 132.58592 179.31331 135.09976 179.01543 C 137.61145 178.71868 139.40727 176.43853 139.1083 173.92685 C 138.96675 172.72244 138.37091 171.68497 137.51047 170.96166 L 157.14338 148.59765 L 156.48606 148.01836 z M 159.32826 148.74493 L 157.06638 159.05592 C 156.96131 159.06592 156.85771 159.0773 156.75271 159.0952 C 154.73287 159.44022 153.3799 161.35989 153.72498 163.37866 C 154.0732 165.39639 155.98861 166.75306 158.00844 166.40483 C 160.02834 166.05871 161.38377 164.14278 161.03772 162.12292 C 160.7613 160.5135 159.4864 159.3275 157.95832 159.08745 L 160.18557 148.93199 L 159.32826 148.74493 z " />
</svg>
